<?xml version="1.0" encoding="UTF-8" standalone="no"?><!DOCTYPE svg PUBLIC "-//W3C//DTD SVG 1.1//EN" "http://www.w3.org/Graphics/SVG/1.1/DTD/svg11.dtd"><svg width="100%" height="100%" viewBox="0 0 1707 1707" version="1.1" xmlns="http://www.w3.org/2000/svg" xmlns:xlink="http://www.w3.org/1999/xlink" xml:space="preserve" xmlns:serif="http://www.serif.com/" style="fill-rule:evenodd;clip-rule:evenodd;stroke-linejoin:round;stroke-miterlimit:2;"><g id="coffee-filter_1951776.png"><path d="M251.667,0l963.333,0c2.312,1.558 1.64,2.517 6.847,4.615c10.958,4.414 37.579,24.511 28.846,60.131c-2.478,10.108 -217.617,529.059 -228.63,557.09c-25.47,64.828 -28.923,64.161 -27.725,70.069c0.761,3.75 12.73,2.648 27.328,2.648c67.519,-0 79.681,-4.57 85.146,30.683c3.435,22.155 21.815,129.853 23.722,143.319c1.867,13.179 8.387,5.149 40.923,-4.296c68.264,-19.818 161.93,-7.647 227.465,43.282c49.969,38.833 106.685,103.527 107.402,217.457c0.88,140.009 -1.062,151.701 -17.52,196.856c-22.909,62.856 -73.542,108.655 -98.269,124.821c-66.898,43.736 -119.504,45.158 -148.759,46.282c-23.568,0.906 37.466,86.783 -24.528,164.533c-23.042,28.899 -58.123,43.177 -71.951,45.394c-5.798,0.93 -4.83,2.622 -6.964,3.78l-810,0c-2.457,-1.333 -1.657,-2.837 -6.994,-3.796c-21.237,-3.814 -118.317,-41.589 -98.487,-157.664c0.087,-0.511 93.874,-563.926 96.187,-576.742c5.165,-28.621 3.659,-30.963 2.219,-33.203c-7.375,-11.468 -115.356,-143.104 -119.053,-153.792c-8.253,-23.863 16.455,-32.37 19.374,-33.375c12.754,-4.391 145.666,-50.149 160.154,-52.718c12.567,-2.228 86.035,0.61 88.983,-1.628c2.398,-1.82 1.852,-2.937 -23.639,-64.901c-229.852,-558.721 -231.402,-558.38 -233.025,-570.376c-3.667,-27.113 15.611,-48.236 30.683,-54.041c4.51,-1.737 3.962,-2.531 6.931,-4.428l1154.99,983.633c-67.106,-81.726 -164.649,-86.505 -218.345,-72.047c-47.634,12.825 -46.937,19.264 -46.489,23.404c1.179,10.9 66.691,401.857 72.545,436.792c10.928,65.214 9.328,66.576 14.059,69.741c5.42,3.626 84.679,5.103 146.906,-46.105c86.435,-71.131 80.985,-162.228 80.994,-180.416c0.051,-113.051 6.513,-161.648 -49.669,-231.367l-1154.99,-983.633Z" style="fill-opacity:1;"/><path d="M522.647,746.888c11.241,30.711 20.445,50.53 22.441,54.829c-12.467,16.674 -19.252,16.63 -12.023,36.106c0.093,0.25 30.613,74.641 34.628,84.115c17.811,42.023 39.016,36.548 123.973,36.548c168.76,-0 169.833,1.054 183.107,-7.206c23.271,-14.48 22.904,-30.493 80.117,-166.326c12.95,-30.746 13.704,-40.022 23.425,-40.348c2.445,-0.082 72.45,-0.07 73.366,-0.027c8.561,0.403 8.098,3.63 14.359,40.238c44.178,258.295 41.932,258.558 86.139,516.756c0.409,2.387 4.827,28.19 4.594,29.925c-1.171,8.749 -46.086,4.088 -68.473,-3.068c-40.879,-13.067 -79.258,-54.154 -180.073,-44.313c-81.664,7.971 -106.233,65.622 -209.643,49.288c-63.782,-10.075 -67.215,-51.517 -180.239,-50.426c1.117,-7.282 0.921,-7.146 0.917,-14.649c-0.2,-452.733 0.894,-488.215 -1.606,-506.769c-0.611,-4.534 0.812,-4.232 1.52,-6.561c0.323,-1.063 -0.325,-2.27 -0.002,-3.333l3.472,-4.779Z" style="fill:#edf2fb;"/><path d="M518.492,1333.002c73.662,-0.091 71.415,11.871 120.6,33.691c11.648,5.167 76.667,34.013 158.933,10.563c52.418,-14.942 77.742,-52.957 167.085,-43.085c69.814,7.714 71.706,54.632 193.232,51.349c12.035,-0.325 7.423,6.845 25.89,109.618c16.026,89.183 13.715,90.197 5.626,110.712c-1.953,-0.982 -2.906,-3.421 -4.859,-4.403c-3.107,-1.563 -3.204,0.204 -6.667,0.105c-2.055,-0.059 -492.066,0.066 -496.662,-0.069c-101.097,-2.969 -156.866,-74.055 -161.967,-153.225c-0.321,-4.989 -0.347,-102.537 -0.009,-113.257l-1.202,-1.998Z" style="fill:#684f54;"/><path d="M518.492,1333.002l1.202,1.998c-0.338,10.72 -0.312,108.268 0.009,113.257c5.101,79.17 60.87,150.256 161.967,153.225c4.596,0.135 494.608,0.011 496.662,0.069c3.463,0.099 3.56,-1.668 6.667,-0.105c1.953,0.982 2.906,3.421 4.859,4.403c-23.588,59.655 -88.462,50.703 -111.525,50.703c-734.461,0 -734.378,0.125 -740.09,-1.046c-57.206,-11.727 -73.55,-61.51 -67.006,-97.246c2.023,-11.045 21.781,-131.354 24.006,-143.216c3.412,-18.191 1.105,-29.878 13.077,-29.495c51.608,1.653 77.761,-4.305 117.038,-23.146c39.065,-18.74 45.966,-26.798 93.134,-29.402Z" style="fill:#4a3e4d;"/><path d="M628.095,372.265c5.061,2.537 51.341,31.784 133.671,23.559c84.231,-8.416 104.512,-65.378 209.66,-49.322c7.64,1.167 23.054,3.52 89.425,36.556c4.188,2.084 2,8.25 1.756,8.937c-0.626,1.763 -74.301,180.6 -76.839,186.659c-7.515,17.936 -17.612,43.896 -26.469,63.579c-2.986,-0.918 -2.534,-2.122 -7.43,-2.284c-71.908,-2.379 -220.108,3.841 -247.076,-4.232c-91.89,-27.508 -78.49,-124.657 -78.49,-134.05c-0,-125.786 -0.053,-125.743 0.209,-126.667c0.287,-1.014 1.296,-1.722 1.583,-2.735Z" style="fill:#684f54;"/><path d="M522.647,746.888l-3.472,4.779c-0.323,1.063 0.325,2.27 0.002,3.333c-0.708,2.33 -2.131,2.028 -1.52,6.561c2.5,18.553 1.406,54.036 1.606,506.769c0.003,7.503 0.2,7.367 -0.917,14.649c-82.352,4.84 -77.623,22.7 -140.086,45.14c-16.047,5.765 -65.203,12.685 -68.055,4.208c-1.749,-5.199 3.642,-25.408 36.441,-227.085c0.394,-2.42 2.705,-16.635 5.242,-30.202c16.79,-89.801 13.196,-90.244 30.007,-179.999c9.338,-49.855 7.331,-50.106 16.66,-100.001c6.597,-35.284 3.873,-50.303 16.438,-50.478c8.268,-0.115 93.361,-1.299 103.361,0.316c3.334,0.538 2.882,1.349 4.295,2.011Z" style="fill:#dee7f6;"/><path d="M628.095,372.265c-0.287,1.014 -1.296,1.722 -1.583,2.735c-0.261,0.924 -0.209,0.881 -0.209,126.667c0,9.392 -13.4,106.542 78.49,134.05c26.968,8.073 175.168,1.853 247.076,4.232c4.896,0.162 4.444,1.366 7.43,2.284c-18.688,47.975 -20.047,51.968 -27.664,52.243c-3.481,0.126 -395.394,0.089 -396.615,0.024c-9.44,-0.505 -9.717,-7.158 -19.166,-29.852c-42.564,-102.219 -94.28,-229.079 -102.411,-249.026c-6.024,-14.776 -14.788,-29.242 -7.807,-32.842c22.515,-11.609 23.145,-10.036 45.608,-21.938c31.887,-16.895 96.181,-28.387 154.085,0.153c4.392,2.165 8.589,4.282 9.334,4.658c6.78,3.42 6.68,3.289 13.431,6.613Z" style="fill:#4a3e4d;"/><path d="M628.351,49.885c7.477,0.258 7.387,0.229 476.649,0.229c91.786,0 97.316,-2.796 96.21,4.83c-0.635,4.379 -30.077,73.722 -32.782,80.095c-7.593,17.883 -4.059,25.142 -23.428,25.191c-68.394,0.171 -86.039,-4.705 -89.084,24.852c-6.499,0.716 -49.036,0.846 -57.666,-0.076c-0.336,-2.251 -2.723,-18.245 -16.689,-23.047c-11.406,-3.922 -272.993,-0.518 -356.615,-1.96c0.016,-0.086 1.739,-3.599 1.578,-8.333c-0.479,-14.087 -0.266,-88.831 -0,-96.667l1.828,-5.115Z" style="fill:#edf2fb;"/><path d="M998.25,185.007c8.63,0.922 51.167,0.792 57.666,0.076c2.668,19.708 10.337,25.099 32.418,25.146c41.831,0.088 50.181,-2.262 45.966,7.848c-37.288,89.428 -46.743,115.014 -49.056,117.182c-8.646,8.102 -53.268,-31.553 -110.436,-38.784c-114.846,-14.526 -145.513,35.811 -203.385,47.273c-78.055,15.46 -129.15,-20.607 -150.38,-30.776c2.064,-3.023 3.298,-1.584 5.384,-4.639c0.15,-0.22 0.154,-0.225 0.06,-3.333c-0.564,-18.829 -0.2,-84.213 0,-90l1.781,-4.764c95.577,-0.002 191.155,-0.005 286.732,-0.007c66.86,0 79.442,3.784 83.25,-25.223Z" style="fill:#f3dab2;"/><path d="M628.351,49.885l-1.828,5.115c-0.266,7.836 -0.479,82.58 0,96.667c0.161,4.734 -1.561,8.247 -1.578,8.333c-0.529,0.018 -6.611,0.229 -6.611,0.229c-21.668,-0.744 -303.374,0.362 -307.054,-0.583c-3.603,-0.925 -4.102,-1.493 -31.665,-68.5c-14.456,-35.142 -17.503,-40.238 -11.027,-41.271c0.024,-0.004 330.981,0.01 359.762,0.011Z" style="fill:#dee7f6;"/><path d="M522.647,746.888c8.275,-2.658 8.436,-2.349 212.353,-2.349c177.585,-0 177.959,-0.159 179.289,1.201c2.534,2.591 1.132,3.564 -32.643,85.918c-0.598,-0.9 1.811,-2.106 1.213,-3.006c-1.351,-2.036 -7.577,-2.112 -8.259,-2.121c-68.188,-0.84 -68.044,1.388 -136.269,0.243c-52.795,-0.886 -82.999,35.291 -85.16,78.225l1.818,3.446c-31.422,0.055 -37.706,2.078 -41.902,-7.383c-17.347,-39.116 -30.778,-86.632 -45.012,-95.634c-1.574,-0.996 -4.664,-2.95 -22.988,-3.712c-1.996,-4.299 -11.2,-24.118 -22.441,-54.829Z" style="fill:#6e6570;"/><path d="M628.268,210.236l-1.781,4.764c-0.201,5.787 -0.564,71.171 -0,90c0.093,3.109 0.09,3.113 -0.06,3.333c-2.086,3.055 -3.32,1.617 -5.384,4.639c-146.164,-60.484 -231.063,39.261 -241.253,21.108c-0.68,-1.212 -48.974,-118.63 -49.036,-119.013c-0.88,-5.454 9.952,-5.1 10.914,-5.069c8.625,0.282 8.572,0.155 286.6,0.237Z" style="fill:#e9c79e;"/><path d="M810.174,1188.078c-23.67,99.527 -155.174,73.074 -155.426,-13.077c-0.014,-4.624 -1.775,-32.15 51.383,-112.583c0.645,-0.976 12.967,-26.439 35.871,-18.294c17.549,6.241 54.112,78.788 60.182,93.984c11.568,28.961 9.245,34.749 7.99,49.969Z"/><path d="M881.647,831.659c-7.512,18.316 -11.532,27.905 -12.547,30.326c-1.206,2.875 -1.009,2.829 -14.846,36.035c-5.427,13.023 -9.141,10.464 -42.587,10.464c-52.226,-0.013 -104.451,-0.026 -156.677,-0.039l-1.818,-3.446c2.16,-42.933 32.365,-79.111 85.16,-78.225c68.225,1.145 68.081,-1.083 136.269,-0.243c0.682,0.008 6.908,0.085 8.259,2.121c0.598,0.9 -1.811,2.106 -1.213,3.006Z" style="fill:#847d86;"/><path d="M346.567,801.904c-10.457,63.172 -9.405,64.181 -12.066,65.439c-3.967,1.875 -9.856,-9.761 -28.844,-32.865c-36.433,-44.329 -37.533,-46.19 -34.305,-49.792c0.288,-0.321 77.191,-27.532 80.055,-25.88c2.967,1.711 0.482,13.593 -3.657,36.089c-0.429,2.331 -0.754,4.679 -1.183,7.01Z" style="fill:#edf2fb;"/><path d="M707.102,1164.574c1.668,-4.079 20.466,-50.043 27.161,-47.926c2.128,0.673 25.262,42.169 26.56,55.135c4.017,40.116 -66.311,41.939 -53.721,-7.21Z" style="fill:#684f54;"/></g></svg>